<svg width="30" height="37" viewBox="0 0 30 37" fill="none" xmlns="http://www.w3.org/2000/svg">
<path d="M1 7.46231V30.0754C0.999756 30.7826 1.13888 31.483 1.40941 32.1365C1.67995 32.7899 2.0766 33.3837 2.5767 33.8838C3.07679 34.3838 3.67053 34.7805 4.32399 35.051C4.97744 35.3216 5.6778 35.4607 6.38505 35.4604H23.615C25.0427 35.4604 26.4119 34.8933 27.4214 33.8837C28.431 32.8742 28.9981 31.505 28.9981 30.0773V7.46045" stroke="#9032FF" stroke-width="1.5" stroke-linecap="round" stroke-linejoin="round"/>
<path d="M8.53832 13.9234L9.20702 15.2366C9.65239 16.1355 10.3401 16.8921 11.1925 17.421C12.0449 17.9499 13.0282 18.2301 14.0314 18.2299H15.9686C16.9718 18.2301 17.9551 17.9499 18.8075 17.421C19.6599 16.8921 20.3476 16.1355 20.793 15.2366L21.4617 13.9234M29 7.46172L23.1623 1.62404C22.9612 1.42481 22.7228 1.26715 22.4607 1.16008C22.1986 1.05302 21.918 0.998632 21.6349 1.00004H8.36509C8.08166 0.998285 7.80067 1.0525 7.53824 1.15958C7.27581 1.26666 7.03711 1.4245 6.83582 1.62404L1 7.46359L29 7.46172Z" stroke="#9032FF" stroke-width="1.5" stroke-linecap="round" stroke-linejoin="round"/>
</svg>
