<svg width="67" height="67" viewBox="0 0 67 67" fill="none" xmlns="http://www.w3.org/2000/svg">
<path d="M53.9722 33.5C52.4914 33.5 51.0713 32.9118 50.0242 31.8647C48.9771 30.8176 48.3889 29.3975 48.3889 27.9167C48.3889 26.4359 48.9771 25.0157 50.0242 23.9687C51.0713 22.9216 52.4914 22.3333 53.9722 22.3333C55.453 22.3333 56.8732 22.9216 57.9202 23.9687C58.9673 25.0157 59.5556 26.4359 59.5556 27.9167C59.5556 29.3975 58.9673 30.8176 57.9202 31.8647C56.8732 32.9118 55.453 33.5 53.9722 33.5ZM42.8056 18.6111C41.3248 18.6111 39.9046 18.0229 38.8575 16.9758C37.8105 15.9287 37.2222 14.5086 37.2222 13.0278C37.2222 11.547 37.8105 10.1268 38.8575 9.07976C39.9046 8.03269 41.3248 7.44444 42.8056 7.44444C44.2864 7.44444 45.7065 8.03269 46.7536 9.07976C47.8006 10.1268 48.3889 11.547 48.3889 13.0278C48.3889 14.5086 47.8006 15.9287 46.7536 16.9758C45.7065 18.0229 44.2864 18.6111 42.8056 18.6111ZM24.1944 18.6111C22.7137 18.6111 21.2935 18.0229 20.2464 16.9758C19.1994 15.9287 18.6111 14.5086 18.6111 13.0278C18.6111 11.547 19.1994 10.1268 20.2464 9.07976C21.2935 8.03269 22.7137 7.44444 24.1944 7.44444C25.6752 7.44444 27.0954 8.03269 28.1425 9.07976C29.1895 10.1268 29.7778 11.547 29.7778 13.0278C29.7778 14.5086 29.1895 15.9287 28.1425 16.9758C27.0954 18.0229 25.6752 18.6111 24.1944 18.6111ZM13.0278 33.5C11.547 33.5 10.1268 32.9118 9.07976 31.8647C8.03269 30.8176 7.44444 29.3975 7.44444 27.9167C7.44444 26.4359 8.03269 25.0157 9.07976 23.9687C10.1268 22.9216 11.547 22.3333 13.0278 22.3333C14.5086 22.3333 15.9287 22.9216 16.9758 23.9687C18.0229 25.0157 18.6111 26.4359 18.6111 27.9167C18.6111 29.3975 18.0229 30.8176 16.9758 31.8647C15.9287 32.9118 14.5086 33.5 13.0278 33.5ZM33.5 0C24.6152 0 16.0944 3.52945 9.81192 9.81192C3.52945 16.0944 0 24.6152 0 33.5C0 42.3848 3.52945 50.9056 9.81192 57.1881C16.0944 63.4705 24.6152 67 33.5 67C34.9808 67 36.4009 66.4118 37.448 65.3647C38.4951 64.3176 39.0833 62.8975 39.0833 61.4167C39.0833 59.965 38.525 58.6622 37.6317 57.6944C36.7756 56.6894 36.2172 55.3867 36.2172 53.9722C36.2172 52.4914 36.8055 51.0713 37.8525 50.0242C38.8996 48.9771 40.3198 48.3889 41.8006 48.3889H48.3889C53.3249 48.3889 58.0587 46.4281 61.5489 42.9378C65.0392 39.4476 67 34.7138 67 29.7778C67 13.3256 51.9994 0 33.5 0Z" fill="#FFB600"/>
</svg>
