<svg width="60" height="60" viewBox="0 0 60 60" fill="none" xmlns="http://www.w3.org/2000/svg">
<path d="M40.7758 0C38.5071 0.916879 34.5233 2.63548 33.2428 4.57016C33.0084 5.4973 32.9886 6.29966 33.0694 7.1782C34.4235 7.50186 37.7318 7.97569 38.787 7.25129C40.3816 5.00462 40.66 2.54123 40.7758 0ZM16.8985 9.12378C17.4873 10.5354 19.0298 13.4554 20.3018 14.0127C22.1124 14.0876 23.5737 13.5058 25.1239 12.7249C25.0844 11.8949 24.967 11.0794 24.5733 10.2953C22.0298 8.99131 19.563 8.96297 16.8985 9.12378ZM31.3188 9.10095C31.7386 10.8131 31.922 12.7274 31.9398 14.7152C30.6888 13.8075 29.1653 13.135 27.4218 12.5712C27.4953 14.1426 27.6551 14.0062 26.3933 14.6644C28.9557 15.4615 30.7411 16.4133 31.8501 17.7532C31.6321 21.1276 31.0548 24.5261 30.4429 27.3568C26.7421 27.4669 21.99 27.9929 17.8558 28.8415L21.8803 30.8648L13.8725 29.8304C11.8789 30.162 9.03363 31.2557 8.78557 32.5919C9.37187 35.8827 14.6671 37.3561 17.2341 38.0342C22.3273 39.3582 28.6374 39.9212 32.9553 39.7984C34.9959 39.7403 37.6561 39.375 40.3861 38.7973L35.6878 34.0211L43.436 38.0679C46.4663 37.1564 49.6783 36.2889 52.2654 34.4771C52.6815 34.104 53.7821 33.4068 53.5747 32.7567C53.3206 31.981 52.4842 31.149 51.0463 30.4161C49.6085 29.6833 47.6474 29.077 45.4734 28.6192C42.1827 27.9261 38.4042 27.5612 35.0961 27.4139L33.9091 33.4009C30.8143 36.2426 26.1329 34.6089 25.51 32.1532L27.7827 31.8306C28.9063 33.0766 30.799 32.8629 31.8216 32.1254C32.1696 29.8124 32.879 27.2763 33.2769 25.152C35.7657 24.7378 37.7278 23.5247 39.324 21.854C38.4592 21.6011 38.1962 20.7182 37.9328 19.9495C36.7734 21.2332 35.2754 22.3559 33.6847 22.7476C34.3212 18.5258 34.5979 13.8285 33.799 9.68557C32.9608 9.54144 32.1353 9.33729 31.3188 9.10095ZM39.779 17.2817C39.5743 19.371 40.5948 19.9105 42.4722 20.1943C43.3171 19.0331 43.5969 17.8716 43.7846 16.5742C42.5592 16.7457 40.6545 16.2268 39.779 17.2817ZM39.779 17.2817C39.7777 17.2819 39.7752 17.2849 39.7702 17.2917C39.7723 17.2887 39.7766 17.2848 39.779 17.2817ZM53.4448 36.4623C50.7166 38.1239 48.2758 39.052 45.5222 39.8778L44.1751 45.6752L41.8047 40.8566C38.6557 41.5777 35.5148 42.0343 33.0201 42.1054C28.4471 42.2354 22.0397 41.6673 16.6596 40.2688C13.9123 39.3592 11.1841 38.6229 9.07929 37.0398L7.3811 49.5856L0 57.3175C3.59407 57.0743 7.10574 58.7534 10.1386 58.0356C11.4342 57.7209 13.2334 57.059 15.8573 55.8535L22.0063 50.7699L18.7446 56.116C24.7515 58.8586 30.425 57.6519 35.7659 55.3819L34.1041 46.312L39.324 54.6911C45.0365 59.4053 51.8327 61.0619 58.5971 59.3312C59.1617 59.1837 59.6178 59.0298 60 58.8845L55.686 52.6059L52.8526 55.6736L54.4184 47.3591L53.4448 36.4623Z" fill="#FFB600"/>
</svg>
