<svg width="30" height="31" viewBox="0 0 30 31" fill="none" xmlns="http://www.w3.org/2000/svg">
<path d="M15 0.45459C10.9294 0.45459 10.4175 0.473374 8.81812 0.544753C7.21875 0.61989 6.12937 0.871597 5.175 1.24352C4.17393 1.62074 3.26717 2.21245 2.51813 2.97729C1.75514 3.72809 1.16458 4.63638 0.7875 5.639C0.41625 6.59323 0.163125 7.68646 0.09 9.28311C0.01875 10.8892 0 11.4001 0 15.4837C0 19.5636 0.01875 20.0746 0.09 21.6769C0.165 23.2773 0.41625 24.3686 0.7875 25.3247C1.17188 26.3128 1.68375 27.1505 2.51813 27.9864C3.35063 28.8223 4.18687 29.337 5.17313 29.7202C6.12937 30.0921 7.21688 30.3457 8.81437 30.419C10.4156 30.4904 10.9256 30.5091 15 30.5091C19.0744 30.5091 19.5825 30.4904 21.1838 30.419C22.7794 30.3438 23.8725 30.0921 24.8269 29.7202C25.8273 29.3428 26.7334 28.7511 27.4819 27.9864C28.3162 27.1505 28.8281 26.3128 29.2125 25.3247C29.5819 24.3686 29.835 23.2773 29.91 21.6769C29.9812 20.0746 30 19.5636 30 15.4819C30 11.4001 29.9812 10.8892 29.91 9.28499C29.835 7.68647 29.5819 6.59323 29.2125 5.639C28.8355 4.63635 28.2449 3.72805 27.4819 2.97729C26.7331 2.21217 25.8262 1.62042 24.825 1.24352C23.8687 0.871597 22.7775 0.618011 21.1819 0.544753C19.5806 0.473374 19.0725 0.45459 14.9963 0.45459H15.0019H15ZM13.6556 3.16326H15.0019C19.0069 3.16326 19.4812 3.1764 21.0619 3.24966C22.5244 3.31541 23.3194 3.56148 23.8481 3.76623C24.5475 4.03859 25.0481 4.36544 25.5731 4.89139C26.0981 5.41735 26.4225 5.917 26.6944 6.61953C26.9006 7.14736 27.1444 7.94381 27.21 9.40897C27.2831 10.9925 27.2981 11.4677 27.2981 15.4781C27.2981 19.4885 27.2831 19.9656 27.21 21.5491C27.1444 23.0143 26.8988 23.8089 26.6944 24.3386C26.4539 24.991 26.07 25.581 25.5712 26.0648C25.0462 26.5908 24.5475 26.9157 23.8463 27.1881C23.3213 27.3947 22.5262 27.6389 21.0619 27.7066C19.4812 27.7779 19.0069 27.7948 15.0019 27.7948C10.9969 27.7948 10.5206 27.7779 8.94 27.7066C7.4775 27.6389 6.68437 27.3947 6.15562 27.1881C5.50406 26.9475 4.91461 26.5637 4.43062 26.0648C3.93141 25.5803 3.54698 24.9897 3.30562 24.3367C3.10125 23.8089 2.85563 23.0124 2.79 21.5472C2.71875 19.9637 2.70375 19.4885 2.70375 15.4743C2.70375 11.4621 2.71875 10.9887 2.79 9.40521C2.8575 7.94005 3.10125 7.1436 3.3075 6.61389C3.57938 5.91325 3.90562 5.41171 4.43062 4.88576C4.95563 4.3598 5.45437 4.03484 6.15562 3.76247C6.68437 3.55584 7.4775 3.31165 8.94 3.24403C10.3238 3.18016 10.86 3.16138 13.6556 3.1595V3.16326ZM23.0081 5.65778C22.7717 5.65778 22.5377 5.70443 22.3193 5.79505C22.1009 5.88567 21.9025 6.0185 21.7353 6.18595C21.5682 6.3534 21.4356 6.55219 21.3451 6.77097C21.2547 6.98976 21.2081 7.22425 21.2081 7.46106C21.2081 7.69787 21.2547 7.93235 21.3451 8.15114C21.4356 8.36992 21.5682 8.56871 21.7353 8.73616C21.9025 8.90361 22.1009 9.03644 22.3193 9.12706C22.5377 9.21769 22.7717 9.26433 23.0081 9.26433C23.4855 9.26433 23.9434 9.07434 24.2809 8.73616C24.6185 8.39798 24.8081 7.93931 24.8081 7.46106C24.8081 6.9828 24.6185 6.52413 24.2809 6.18595C23.9434 5.84777 23.4855 5.65778 23.0081 5.65778ZM15.0019 7.76536C13.9801 7.74939 12.9654 7.93721 12.0168 8.31788C11.0682 8.69855 10.2047 9.26446 9.47653 9.98268C8.74835 10.7009 8.17006 11.5571 7.77533 12.5013C7.3806 13.4456 7.17731 14.4591 7.17731 15.4828C7.17731 16.5065 7.3806 17.52 7.77533 18.4643C8.17006 19.4086 8.74835 20.2647 9.47653 20.9829C10.2047 21.7011 11.0682 22.2671 12.0168 22.6477C12.9654 23.0284 13.9801 23.2162 15.0019 23.2002C17.0241 23.1686 18.9529 22.3417 20.3718 20.8978C21.7908 19.4539 22.5861 17.509 22.5861 15.4828C22.5861 13.4566 21.7908 11.5117 20.3718 10.0678C18.9529 8.62395 17.0241 7.79697 15.0019 7.76536ZM15.0019 10.4721C16.3281 10.4721 17.6001 11 18.5379 11.9395C19.4757 12.879 20.0025 14.1532 20.0025 15.4819C20.0025 16.8105 19.4757 18.0848 18.5379 19.0243C17.6001 19.9638 16.3281 20.4916 15.0019 20.4916C13.6756 20.4916 12.4037 19.9638 11.4659 19.0243C10.5281 18.0848 10.0013 16.8105 10.0013 15.4819C10.0013 14.1532 10.5281 12.879 11.4659 11.9395C12.4037 11 13.6756 10.4721 15.0019 10.4721Z" fill="#9032FF"/>
</svg>
