<svg width="24" height="27" viewBox="0 0 24 27" fill="none" xmlns="http://www.w3.org/2000/svg">
<path d="M21.3333 0.600098C22.0406 0.600098 22.7189 0.903398 23.219 1.44327C23.719 1.98315 24 2.71538 24 3.47889V23.6304C24 24.3939 23.719 25.1261 23.219 25.666C22.7189 26.2059 22.0406 26.5092 21.3333 26.5092H2.66667C1.95942 26.5092 1.28115 26.2059 0.781048 25.666C0.280951 25.1261 0 24.3939 0 23.6304V3.47889C0 2.71538 0.280951 1.98315 0.781048 1.44327C1.28115 0.903398 1.95942 0.600098 2.66667 0.600098H21.3333ZM20.6667 22.9107V15.2819C20.6667 14.0374 20.2087 12.8439 19.3936 11.9639C18.5784 11.0839 17.4728 10.5895 16.32 10.5895C15.1867 10.5895 13.8667 11.338 13.2267 12.4607V10.863H9.50667V22.9107H13.2267V15.8145C13.2267 14.7062 14.0533 13.7993 15.08 13.7993C15.5751 13.7993 16.0499 14.0116 16.3999 14.3896C16.75 14.7675 16.9467 15.28 16.9467 15.8145V22.9107H20.6667ZM5.17333 8.60313C5.76742 8.60313 6.33717 8.34836 6.75725 7.89486C7.17733 7.44136 7.41333 6.82629 7.41333 6.18495C7.41333 4.84631 6.41333 3.75237 5.17333 3.75237C4.57571 3.75237 4.00257 4.00866 3.57999 4.46485C3.1574 4.92105 2.92 5.53979 2.92 6.18495C2.92 7.52358 3.93333 8.60313 5.17333 8.60313ZM7.02667 22.9107V10.863H3.33333V22.9107H7.02667Z" fill="#9032FF"/>
</svg>
