<svg width="105" height="53" viewBox="0 0 105 53" fill="none" xmlns="http://www.w3.org/2000/svg">
<path d="M69.0027 11.1117C68.217 11.2886 67.411 11.3574 66.6067 11.3164C65.9262 11.299 65.2532 11.1698 64.6146 10.9339L65.083 8.68252C65.6229 8.87577 66.1859 8.9971 66.7575 9.0434C67.355 9.10198 67.958 9.06746 68.545 8.94106C68.862 8.87659 69.1683 8.7678 69.4549 8.61789C69.6356 8.52584 69.7909 8.39082 69.9072 8.2247C69.9543 8.14265 69.9824 8.05112 69.9897 7.9568C69.9969 7.86248 69.9829 7.76773 69.9489 7.67948C69.9148 7.59123 69.8615 7.51169 69.7928 7.44667C69.7241 7.38165 69.6418 7.33279 69.5518 7.30366C69.2705 7.2098 68.9762 7.16072 68.6796 7.15823C68.3296 7.15823 67.9474 7.15823 67.5328 7.15823C67.1101 7.16329 66.6875 7.14171 66.2675 7.0936C65.857 7.05493 65.4533 6.96257 65.0668 6.8189C64.6884 6.68268 64.3472 6.45945 64.0708 6.16717C63.7655 5.81715 63.5609 5.39088 63.4785 4.93374C63.3508 4.36537 63.3997 3.77155 63.6185 3.23171C63.8715 2.63772 64.2879 2.12781 64.8192 1.76128C65.5178 1.27934 66.3105 0.950763 67.1451 0.797154C67.7864 0.653124 68.4425 0.586221 69.0996 0.597866C69.7111 0.599191 70.319 0.691775 70.9033 0.872561L70.4995 3.12937C70.0056 2.98166 69.4959 2.89307 68.9811 2.86545C68.5192 2.8358 68.0553 2.87024 67.6028 2.96778C67.2879 3.0247 66.9843 3.132 66.7036 3.28557C66.5185 3.38234 66.3665 3.53243 66.2675 3.71646C66.1912 3.86598 66.1702 4.03771 66.2083 4.20122C66.2309 4.30609 66.2814 4.40294 66.3543 4.4816C66.4273 4.56026 66.52 4.61783 66.6229 4.64827C66.9034 4.73644 67.1957 4.78183 67.4897 4.78293H68.6419C69.0643 4.77948 69.4866 4.79745 69.9072 4.83679C70.3178 4.87169 70.7217 4.96229 71.1079 5.1061C71.5182 5.24888 71.8819 5.50083 72.1599 5.83488C72.4378 6.16893 72.6195 6.57243 72.6854 7.00203C72.8091 7.5653 72.7603 8.15277 72.5454 8.68791C72.2929 9.28349 71.8789 9.79654 71.3502 10.1691C70.6433 10.6462 69.8431 10.9675 69.0027 11.1117ZM75.4637 10.46L76.7612 2.74695L73.7084 2.20833L74.0853 0L82.9853 1.50813L82.6084 3.73801L79.5718 3.19939L78.2634 10.9339L75.4637 10.46ZM84.8429 14.0472C84.2942 13.7276 83.8146 13.3021 83.4319 12.7954C83.0492 12.2886 82.7711 11.7108 82.6138 11.0955C82.5081 10.469 82.5319 9.82739 82.6838 9.21041C82.8356 8.59342 83.1124 8.01413 83.4968 7.50833L86.5766 2.85468L88.951 4.43821L85.9035 9.01646C85.4892 9.53466 85.2752 10.1847 85.3005 10.8478C85.3465 11.1048 85.4472 11.349 85.5959 11.5637C85.7445 11.7784 85.9376 11.9585 86.162 12.092C86.3697 12.2495 86.6098 12.3588 86.865 12.4119C87.1202 12.465 87.384 12.4606 87.6372 12.399C88.2558 12.1638 88.7696 11.7148 89.0856 11.1332L92.1276 6.54959L94.4643 8.1062L91.3738 12.7599C91.0549 13.3089 90.6273 13.787 90.1172 14.1648C89.607 14.5427 89.0252 14.8124 88.4072 14.9574C87.7807 15.0507 87.1419 15.0183 86.5281 14.862C85.9143 14.7057 85.3377 14.4287 84.8321 14.0472H84.8429ZM89.344 16.9288L98.2063 12.1243L100.478 16.3147C100.978 17.1962 101.271 18.1797 101.335 19.191C101.384 20.0879 101.179 20.9806 100.742 21.7655C100.248 22.5629 99.5549 23.2174 98.7305 23.6642C97.9061 24.111 96.9793 24.3348 96.0419 24.3132C95.1458 24.2516 94.2854 23.938 93.5598 23.4083C92.7465 22.8029 92.0817 22.0201 91.6161 21.1192L89.344 16.9288ZM92.7037 18.3507L93.549 19.9289C93.787 20.393 94.1321 20.7937 94.5559 21.0977C94.9403 21.3658 95.3956 21.5139 95.8642 21.5232C96.3833 21.5104 96.8919 21.3749 97.3486 21.1278C97.8053 20.8806 98.197 20.5288 98.4917 20.1012C98.737 19.702 98.8587 19.2391 98.8417 18.7708C98.8185 18.2498 98.6707 17.7418 98.4109 17.2896L97.5549 15.7061L92.7037 18.3507ZM93.7806 26.667L103.752 25.1965L104.167 28.0189L94.1682 29.4893L93.7806 26.667ZM93.5598 35.371C93.712 34.6237 93.9984 33.9101 94.4051 33.265C94.7788 32.6791 95.2657 32.1736 95.8373 31.7785C96.3984 31.3844 97.0343 31.1095 97.7056 30.9705C98.4156 30.8196 99.1493 30.8196 99.8593 30.9705C100.544 31.1167 101.191 31.4027 101.76 31.8108C102.316 32.2112 102.786 32.7184 103.144 33.3027C103.508 33.9064 103.75 34.5764 103.854 35.2741C104.061 36.7946 103.736 38.3398 102.934 39.6477C102.556 40.2385 102.066 40.7491 101.491 41.1504C100.926 41.5372 100.291 41.8098 99.6224 41.9529C98.9171 42.091 98.1912 42.0853 97.4881 41.9363C96.785 41.7873 96.1192 41.498 95.5304 41.0858C94.9703 40.6886 94.4976 40.1809 94.1413 39.5938C93.7798 38.9969 93.54 38.3342 93.436 37.644C93.3294 36.8868 93.3623 36.1164 93.5329 35.371H93.5598ZM95.875 35.8612C95.7952 36.215 95.786 36.5811 95.8481 36.9384C95.9086 37.2859 96.0426 37.6164 96.2411 37.9079C96.4481 38.2073 96.7115 38.4634 97.0164 38.662C97.3579 38.8772 97.7355 39.0286 98.131 39.109C98.525 39.1987 98.9327 39.2115 99.3316 39.1468C99.6896 39.0915 100.032 38.9632 100.338 38.7697C100.638 38.587 100.893 38.3406 101.087 38.048C101.292 37.7431 101.434 37.4008 101.507 37.0408C101.583 36.6865 101.592 36.3211 101.534 35.9635C101.463 35.6196 101.32 35.2947 101.114 35.0102C100.909 34.711 100.647 34.4548 100.344 34.2561C100.003 34.0368 99.6224 33.885 99.2239 33.809C98.8317 33.7204 98.4263 33.7058 98.0287 33.766C97.668 33.8236 97.3222 33.9517 97.011 34.143C96.7127 34.3293 96.4576 34.5772 96.2626 34.8701C96.0568 35.1691 95.9122 35.506 95.8373 35.8612H95.875ZM89.7478 43.6281C90.2373 42.9911 90.8094 42.4223 91.4492 41.9368C91.9826 41.5117 92.5831 41.1786 93.226 40.9511L94.3028 42.9817C93.7622 43.1796 93.25 43.4476 92.7791 43.7789C92.2851 44.1176 91.8457 44.53 91.4761 45.0015C91.2778 45.2371 91.1145 45.5001 90.9916 45.7825C90.9075 45.968 90.8741 46.1724 90.8947 46.375C90.9198 46.5318 91.0047 46.6727 91.1315 46.7682C91.2187 46.8367 91.3224 46.8808 91.4322 46.8959C91.5419 46.9111 91.6537 46.8967 91.7561 46.8544C92.0319 46.7444 92.2896 46.5937 92.5207 46.4073C92.7953 46.1973 93.0914 45.9549 93.4091 45.6856C93.7329 45.4132 94.0708 45.1579 94.4213 44.9207C94.7574 44.6988 95.1189 44.518 95.4981 44.3821C95.8749 44.2521 96.2763 44.2098 96.6719 44.2582C97.1292 44.3217 97.5608 44.5078 97.921 44.7969C98.3877 45.1503 98.7337 45.6394 98.9117 46.1973C99.0881 46.8187 99.0881 47.4771 98.9117 48.0986C98.6832 48.9157 98.285 49.6756 97.7433 50.3285C97.3387 50.8462 96.8783 51.3176 96.3703 51.7343C95.8974 52.124 95.3694 52.4416 94.8035 52.6768L93.6729 50.6893C94.1452 50.483 94.5931 50.2247 95.0082 49.9191C95.3805 49.6441 95.7137 49.3197 95.9988 48.955C96.204 48.7074 96.3693 48.4294 96.4888 48.1309C96.5669 47.938 96.5875 47.7266 96.548 47.5223C96.5085 47.36 96.4156 47.2158 96.2842 47.1129C96.199 47.0465 96.0975 47.0045 95.9904 46.9912C95.8833 46.9779 95.7745 46.9939 95.6758 47.0375C95.4014 47.146 95.1468 47.2988 94.922 47.4899C94.6474 47.7108 94.3836 47.9532 94.0336 48.2225C93.7262 48.5028 93.4045 48.7671 93.0699 49.0142C92.7368 49.2415 92.3746 49.4227 91.993 49.5528C91.6193 49.6881 91.2184 49.7306 90.8247 49.6767C90.371 49.6002 89.9457 49.4051 89.5917 49.1112C89.1331 48.7602 88.793 48.2771 88.6172 47.7269C88.4293 47.1084 88.42 46.4493 88.5902 45.8256C88.8186 45.0203 89.213 44.2718 89.7478 43.6281Z" fill="#9032FF"/>
<path d="M23.3991 22.4765C29.2975 20.9066 35.0284 18.7635 40.5099 16.0777L37.5701 10.0398C32.5751 12.489 27.3574 14.4549 21.9884 15.9108C20.2601 10.6323 16.1843 6.90506 11.4139 6.40954C6.82123 5.92478 1.21633 8.33779 0.166417 13.0507C-0.673511 16.821 1.81935 20.2951 4.20453 22.1318C6.3582 23.7961 8.84029 24.4478 11.7424 24.4478C13.2966 24.4277 14.8468 24.2836 16.3781 24.017C14.4398 37.9295 14.7252 52.3806 14.7359 53L21.45 52.8545C21.45 52.7091 21.1539 37.7733 23.1352 24.1732L23.3991 22.4765ZM8.32341 16.8102C7.21428 15.9592 6.66509 14.8389 6.74047 14.5103C6.85354 13.9717 8.5657 13.0669 10.2886 13.0669C10.4411 13.0588 10.5938 13.0588 10.7463 13.0669C12.663 13.2661 14.4344 14.9466 15.4036 17.3758C11.1178 18.076 9.40563 17.6613 8.30188 16.8102H8.32341ZM24.3682 51.5242V25.7405C26.4303 25.4551 27.4641 25.2881 29.5262 24.9326V50.7162C27.4587 51.0717 26.4088 51.2387 24.3467 51.5242H24.3682ZM35.8364 23.7369C36.2026 26.9147 36.3749 28.509 36.7571 31.6869C37.0981 34.6888 37.3422 38.1611 37.4894 42.1037C37.7873 37.1305 38.0583 33.5505 38.3024 31.3637C38.6685 28.0297 38.8408 26.3599 39.2231 23.0259C41.0806 22.6219 41.9959 22.4226 43.8588 22.0079L40.6607 48.4756C37.9309 49.0735 36.5687 49.3589 33.8443 49.8922L30.6461 24.7333C32.719 24.3617 33.7582 24.157 35.8364 23.7369ZM56.3985 20.1928C55.6986 19.5572 54.3418 19.462 52.3281 19.9073L49.8999 20.4459C47.8916 20.9037 46.5294 21.6039 45.8294 22.5465C45.1295 23.4891 44.7849 25.078 44.7849 27.3133V42.0553C44.7849 44.2905 45.1349 45.7179 45.8294 46.3642C46.524 47.0105 47.8916 47.0752 49.8999 46.6227L52.3281 46.0841C54.3418 45.6317 55.6986 44.9423 56.3985 44.0051C57.0985 43.0679 57.4431 41.4843 57.4431 39.2491V24.5017C57.4431 22.2611 57.0949 20.8247 56.3985 20.1928ZM52.2958 39.7284C52.3223 40.1391 52.2598 40.5506 52.1128 40.9349C52.0173 41.0663 51.8959 41.1767 51.756 41.2591C51.6162 41.3416 51.4609 41.3944 51.2997 41.4143L50.9282 41.4951C50.5137 41.5921 50.2445 41.549 50.1152 41.382C49.958 41.027 49.8949 40.6374 49.9322 40.2509V26.7854C49.9034 26.3694 49.9658 25.9521 50.1152 25.5628C50.2107 25.4314 50.3321 25.3211 50.472 25.2386C50.6118 25.1561 50.7671 25.1033 50.9282 25.0834L51.2997 25.0026C51.7143 24.9057 51.9835 24.9488 52.1128 25.1157C52.2702 25.4745 52.3333 25.8676 52.2958 26.2576V39.7284ZM71.6788 37.6386V34.66C71.7394 33.4403 71.5714 32.22 71.1834 31.0621C71.0336 30.6918 70.79 30.367 70.4766 30.1195C70.1631 29.8721 69.7907 29.7106 69.3959 29.6509C70.2145 29.2713 70.8549 28.5902 71.1834 27.7496C71.5642 26.5566 71.7319 25.3058 71.6788 24.0547V22.0833C71.6788 19.8463 71.336 18.3848 70.6504 17.699C69.9612 17.0203 68.599 16.8318 66.5638 17.1603C63.5595 17.699 62.0519 17.9737 59.026 18.5985V44.4198C61.0881 43.9835 62.1165 43.7788 64.184 43.3964V32.9311L65.1424 32.7587C65.6808 32.6672 66.0146 32.7587 66.2192 33.028C66.4546 33.4571 66.5576 33.9463 66.5154 34.4338V38.9636C66.5154 40.978 66.693 42.2869 67.0538 42.8901C69.1698 42.5346 70.2304 42.3515 72.3518 42.0768C71.8523 40.6528 71.6294 39.1463 71.6949 37.6386H71.6788ZM66.5208 26.1822C66.5473 26.5907 66.4942 27.0004 66.3646 27.3887C66.2729 27.5173 66.1529 27.6231 66.0138 27.6978C65.8746 27.7725 65.7202 27.8142 65.5624 27.8196L64.2056 28.0781V22.4765L65.5624 22.2234C65.9877 22.1533 66.2515 22.2234 66.3646 22.3849C66.4992 22.7515 66.5525 23.143 66.5208 23.5322V26.1822ZM82.9155 15.3721C80.0673 15.4691 78.6459 15.5768 75.803 15.8838L72.6049 42.0445C74.4624 41.7967 75.3885 41.6944 77.2406 41.5059C77.3914 40.1593 77.4667 39.4807 77.6067 38.1234C78.7751 38.0156 79.3566 37.9779 80.5249 37.9079C80.6811 39.2329 80.7618 39.9008 80.9288 41.2258C82.9909 41.1181 84.0193 41.0858 86.0814 41.0858L82.9155 15.3721ZM78.0698 33.5343C78.5328 27.8465 78.872 23.1282 79.0605 19.3795C79.2579 23.0959 79.5917 27.7639 80.0619 33.3835C79.2543 33.4266 78.8559 33.4589 78.0698 33.5343ZM50.8959 9.36116C51.1519 10.297 51.1249 11.2878 50.8181 12.2083C50.5113 13.1287 49.9386 13.9376 49.1725 14.5325C48.4063 15.1274 47.481 15.4818 46.5135 15.5507C45.5461 15.6197 44.5799 15.4002 43.7371 14.9199C42.8943 14.4396 42.2128 13.7202 41.7787 12.8526C41.3446 11.9849 41.1773 11.008 41.2981 10.0453C41.4189 9.08253 41.8223 8.17725 42.4573 7.44383C43.0923 6.71041 43.9304 6.18179 44.8657 5.92478C45.4872 5.75399 46.1362 5.70741 46.7758 5.78771C47.4153 5.86801 48.0327 6.0736 48.5927 6.39274C49.1528 6.71188 49.6444 7.13831 50.0396 7.64765C50.4348 8.15699 50.7258 8.73926 50.8959 9.36116Z" fill="#222238"/>
</svg>
