<svg width="66" height="36" viewBox="0 0 66 36" fill="none" xmlns="http://www.w3.org/2000/svg">
<path d="M43.7202 7.70614C43.2224 7.82179 42.7117 7.86682 42.2021 7.83997C41.771 7.82863 41.3445 7.74415 40.9399 7.58992L41.2367 6.11776C41.5788 6.24412 41.9355 6.32346 42.2977 6.35372C42.6763 6.39203 43.0583 6.36946 43.4302 6.28681C43.6311 6.24465 43.8252 6.17352 44.0068 6.07549C44.1212 6.0153 44.2196 5.92702 44.2933 5.81839C44.3231 5.76474 44.341 5.7049 44.3456 5.64322C44.3501 5.58155 44.3413 5.5196 44.3197 5.46189C44.2982 5.40418 44.2644 5.35217 44.2209 5.30966C44.1773 5.26715 44.1252 5.2352 44.0682 5.21615C43.8899 5.15477 43.7034 5.12268 43.5155 5.12105C43.2938 5.12105 43.0516 5.12105 42.7889 5.12105C42.5211 5.12436 42.2533 5.11025 41.9872 5.07879C41.7271 5.05351 41.4714 4.99312 41.2265 4.89917C40.9867 4.8101 40.7705 4.66413 40.5954 4.47302C40.402 4.24415 40.2723 3.96542 40.2201 3.6665C40.1392 3.29486 40.1702 2.90657 40.3088 2.55358C40.4691 2.16518 40.7329 1.83176 41.0696 1.5921C41.5122 1.27696 42.0145 1.06211 42.5433 0.961673C42.9496 0.867494 43.3653 0.823748 43.7816 0.831362C44.1691 0.832229 44.5543 0.892768 44.9244 1.01098L44.6686 2.48666C44.3556 2.39008 44.0327 2.33215 43.7066 2.31409C43.4139 2.2947 43.12 2.31722 42.8332 2.381C42.6338 2.41822 42.4414 2.48838 42.2635 2.5888C42.1462 2.65207 42.05 2.75022 41.9872 2.87055C41.9389 2.96832 41.9256 3.08061 41.9497 3.18752C41.964 3.2561 41.996 3.31942 42.0422 3.37086C42.0884 3.42229 42.1472 3.45993 42.2124 3.47984C42.3901 3.53749 42.5753 3.56717 42.7616 3.56789H43.4916C43.7593 3.56563 44.0268 3.57739 44.2933 3.60311C44.5535 3.62593 44.8094 3.68517 45.0541 3.7792C45.3141 3.87257 45.5445 4.03732 45.7206 4.25574C45.8967 4.47417 46.0118 4.73801 46.0536 5.01892C46.132 5.38723 46.1011 5.77136 45.9649 6.12128C45.8049 6.51072 45.5426 6.84619 45.2076 7.0898C44.7597 7.40179 44.2527 7.61188 43.7202 7.70614ZM47.8139 7.27999L48.636 2.23661L46.7018 1.88441L46.9406 0.44043L52.5796 1.42657L52.3408 2.88464L50.4168 2.53245L49.5878 7.58992L47.8139 7.27999ZM53.7565 9.62558C53.4089 9.41665 53.105 9.13841 52.8626 8.80707C52.6201 8.47573 52.4439 8.09789 52.3442 7.69557C52.2772 7.28588 52.2923 6.86636 52.3885 6.46293C52.4848 6.05949 52.6601 5.68071 52.9037 5.34998L54.855 2.30704L56.3594 3.34249L54.4286 6.33611C54.1661 6.67495 54.0305 7.1 54.0465 7.53357C54.0756 7.70166 54.1395 7.86131 54.2336 8.00168C54.3278 8.14206 54.4502 8.25987 54.5923 8.34713C54.7239 8.45014 54.8761 8.5216 55.0378 8.55633C55.1995 8.59105 55.3666 8.58816 55.5271 8.54788C55.9189 8.39412 56.2445 8.1005 56.4447 7.72023L58.3722 4.72308L59.8527 5.74091L57.8946 8.78385C57.6925 9.14284 57.4216 9.45545 57.0983 9.70254C56.7751 9.94962 56.4064 10.126 56.0149 10.2208C55.618 10.2818 55.2132 10.2606 54.8243 10.1584C54.4354 10.0562 54.0701 9.87508 53.7497 9.62558H53.7565ZM56.6085 11.5098L62.2236 8.36826L63.6632 11.1083C63.9797 11.6847 64.1651 12.3278 64.2057 12.989C64.2373 13.5755 64.1071 14.1592 63.8304 14.6725C63.5175 15.1938 63.0781 15.6218 62.5557 15.914C62.0334 16.2062 61.4462 16.3524 60.8523 16.3384C60.2845 16.2981 59.7393 16.093 59.2796 15.7467C58.7643 15.3508 58.3431 14.8389 58.0481 14.2499L56.6085 11.5098ZM58.7372 12.4396L59.2728 13.4715C59.4235 13.775 59.6422 14.037 59.9107 14.2358C60.1543 14.4111 60.4428 14.508 60.7397 14.514C61.0685 14.5056 61.3908 14.417 61.6802 14.2554C61.9695 14.0938 62.2177 13.8638 62.4044 13.5842C62.5598 13.3232 62.637 13.0205 62.6262 12.7143C62.6115 12.3736 62.5179 12.0415 62.3533 11.7458L61.8109 10.7103L58.7372 12.4396ZM59.4195 17.8774L65.7374 16.9159L66 18.7614L59.6651 19.7229L59.4195 17.8774ZM59.2796 23.5688C59.376 23.0802 59.5575 22.6136 59.8152 22.1918C60.0519 21.8086 60.3605 21.4781 60.7226 21.2197C61.0781 20.9621 61.481 20.7823 61.9064 20.6914C62.3562 20.5927 62.8211 20.5927 63.2709 20.6914C63.7047 20.787 64.1147 20.9741 64.4752 21.2409C64.8273 21.5027 65.1253 21.8343 65.3519 22.2164C65.583 22.6112 65.7361 23.0493 65.8022 23.5054C65.9333 24.4997 65.7272 25.5101 65.2188 26.3652C64.9795 26.7516 64.6688 27.0854 64.3046 27.3479C63.9469 27.6008 63.5448 27.779 63.1208 27.8726C62.6739 27.9629 62.214 27.9592 61.7686 27.8617C61.3231 27.7643 60.9012 27.5752 60.5282 27.3056C60.1733 27.0459 59.8738 26.7139 59.648 26.33C59.419 25.9397 59.2671 25.5064 59.2011 25.0551C59.1336 24.56 59.1544 24.0562 59.2625 23.5688H59.2796ZM60.7465 23.8893C60.6959 24.1207 60.6901 24.3601 60.7294 24.5937C60.7678 24.8209 60.8527 25.0371 60.9785 25.2277C61.1096 25.4234 61.2765 25.5909 61.4697 25.7207C61.6861 25.8614 61.9253 25.9605 62.1759 26.0131C62.4256 26.0717 62.6839 26.08 62.9366 26.0377C63.1634 26.0016 63.3805 25.9177 63.5745 25.7912C63.7642 25.6717 63.9261 25.5106 64.0487 25.3192C64.1785 25.1199 64.2689 24.8961 64.3148 24.6606C64.3633 24.429 64.3691 24.1901 64.3319 23.9563C64.2869 23.7314 64.1962 23.5189 64.0658 23.3329C63.9359 23.1372 63.7702 22.9697 63.578 22.8398C63.3617 22.6964 63.1208 22.5972 62.8684 22.5475C62.6198 22.4895 62.363 22.48 62.1111 22.5193C61.8826 22.557 61.6635 22.6408 61.4663 22.7658C61.2773 22.8877 61.1156 23.0498 60.9921 23.2413C60.8617 23.4368 60.7701 23.6571 60.7226 23.8893H60.7465ZM56.8643 28.9679C57.1744 28.5515 57.537 28.1796 57.9423 27.8621C58.2803 27.5841 58.6607 27.3663 59.0681 27.2175L59.7504 28.5453C59.4079 28.6747 59.0833 28.85 58.7849 29.0666C58.4719 29.2881 58.1935 29.5577 57.9594 29.866C57.8337 30.0201 57.7303 30.1921 57.6524 30.3767C57.5991 30.498 57.5779 30.6316 57.591 30.7641C57.6069 30.8666 57.6607 30.9588 57.7411 31.0212C57.7962 31.066 57.862 31.0948 57.9315 31.1047C58.0011 31.1146 58.0719 31.1053 58.1368 31.0776C58.3115 31.0056 58.4748 30.9071 58.6212 30.7852C58.7952 30.6479 58.9828 30.4894 59.1841 30.3133C59.3893 30.1352 59.6033 29.9683 59.8254 29.8132C60.0384 29.6681 60.2675 29.5498 60.5077 29.461C60.7464 29.376 61.0007 29.3483 61.2514 29.38C61.5412 29.4215 61.8146 29.5432 62.0428 29.7322C62.3385 29.9633 62.5578 30.2831 62.6705 30.6479C62.7823 31.0543 62.7823 31.4848 62.6705 31.8911C62.5258 32.4255 62.2735 32.9223 61.9303 33.3492C61.6739 33.6877 61.3822 33.996 61.0603 34.2684C60.7607 34.5232 60.4261 34.7309 60.0676 34.8848L59.3512 33.5852C59.6505 33.4503 59.9343 33.2813 60.1973 33.0815C60.4332 32.9017 60.6443 32.6896 60.825 32.4511C60.955 32.2893 61.0597 32.1075 61.1354 31.9123C61.1849 31.7861 61.1979 31.6479 61.1729 31.5143C61.1479 31.4082 61.089 31.3139 61.0058 31.2466C60.9518 31.2032 60.8875 31.1757 60.8196 31.167C60.7517 31.1584 60.6829 31.1688 60.6203 31.1973C60.4464 31.2682 60.2851 31.3682 60.1427 31.4932C59.9687 31.6376 59.8015 31.796 59.5798 31.9721C59.385 32.1554 59.1812 32.3282 58.9692 32.4899C58.7581 32.6385 58.5286 32.7569 58.2869 32.842C58.0501 32.9305 57.7961 32.9583 57.5466 32.923C57.2592 32.873 56.9897 32.7454 56.7654 32.5532C56.4749 32.3237 56.2594 32.0079 56.1479 31.6481C56.0289 31.2436 56.023 30.8127 56.1309 30.4049C56.2756 29.8783 56.5254 29.3889 56.8643 28.9679Z" fill="#9032FF"/>
<path d="M14.8256 15.1374C18.5629 14.1109 22.194 12.7095 25.667 10.9534L23.8044 7.0053C20.6395 8.60674 17.3337 9.89222 13.9318 10.8442C12.8368 7.39271 10.2543 4.95554 7.23185 4.63153C4.32193 4.31455 0.770664 5.89237 0.105442 8.97405C-0.426736 11.4394 1.15274 13.711 2.66399 14.912C4.02855 16.0003 5.6012 16.4264 7.43995 16.4264C8.42472 16.4133 9.4069 16.319 10.3772 16.1447C9.14906 25.2418 9.32986 34.6911 9.33668 35.0961L13.5907 35.001C13.5907 34.9059 13.4031 25.1396 14.6585 16.2468L14.8256 15.1374ZM5.27371 11.4323C4.57096 10.8759 4.223 10.1433 4.27076 9.92849C4.3424 9.5763 5.42722 8.98461 6.51887 8.98461C6.61546 8.97935 6.71225 8.97935 6.80884 8.98461C8.02329 9.11492 9.14565 10.2138 9.7597 11.8021C7.04422 12.26 5.9594 11.9888 5.26006 11.4323H5.27371ZM15.4397 34.1311V17.2717C16.7462 17.085 17.4012 16.9758 18.7078 16.7434V33.6028C17.3978 33.8352 16.7326 33.9444 15.426 34.1311H15.4397ZM22.7059 15.9615C22.9379 18.0395 23.0471 19.0819 23.2893 21.1599C23.5054 23.1228 23.66 25.3932 23.7532 27.9713C23.942 24.7194 24.1137 22.3785 24.2684 20.9486C24.5003 18.7685 24.6095 17.6767 24.8517 15.4966C26.0286 15.2325 26.6086 15.1022 27.7889 14.831L25.7626 32.1377C24.033 32.5286 23.1699 32.7153 21.4437 33.0639L19.4174 16.6131C20.7307 16.3701 21.3891 16.2362 22.7059 15.9615ZM35.7341 13.6441C35.2906 13.2285 34.4309 13.1663 33.1551 13.4574L31.6165 13.8096C30.3441 14.109 29.481 14.5668 29.0375 15.1832C28.594 15.7995 28.3757 16.8385 28.3757 18.3001V27.9396C28.3757 29.4012 28.5974 30.3345 29.0375 30.7571C29.4776 31.1797 30.3441 31.222 31.6165 30.9261L33.1551 30.5739C34.4309 30.2781 35.2906 29.8273 35.7341 29.2145C36.1776 28.6017 36.3959 27.5662 36.3959 26.1046V16.4616C36.3959 14.9965 36.1753 14.0573 35.7341 13.6441ZM33.1346 26.4181C33.1514 26.6866 33.1118 26.9557 33.0186 27.207C32.9581 27.2929 32.8812 27.3651 32.7926 27.419C32.704 27.4729 32.6056 27.5074 32.5035 27.5205L32.2681 27.5733C32.0054 27.6367 31.8348 27.6085 31.753 27.4993C31.6533 27.2672 31.6134 27.0124 31.637 26.7597V17.9549C31.6187 17.6829 31.6583 17.41 31.753 17.1555C31.8134 17.0696 31.8904 16.9974 31.979 16.9435C32.0676 16.8896 32.166 16.855 32.2681 16.842L32.5035 16.7892C32.7662 16.7258 32.9367 16.754 33.0186 16.8631C33.1184 17.0977 33.1583 17.3548 33.1346 17.6098V26.4181ZM45.4156 25.0516V23.104C45.454 22.3064 45.3476 21.5085 45.1018 20.7513C45.0069 20.5092 44.8525 20.2968 44.6539 20.135C44.4553 19.9732 44.2193 19.8676 43.9692 19.8286C44.4878 19.5804 44.8936 19.135 45.1018 18.5854C45.343 17.8053 45.4493 16.9874 45.4156 16.1693V14.8803C45.4156 13.4175 45.1984 12.4619 44.764 12.0135C44.3274 11.5697 43.4643 11.4464 42.1748 11.6613C40.2712 12.0135 39.316 12.1931 37.3988 12.6016V29.4857C38.7054 29.2004 39.357 29.0666 40.667 28.8165V21.9734L41.2742 21.8607C41.6153 21.8009 41.8268 21.8607 41.9565 22.0368C42.1056 22.3174 42.1709 22.6372 42.1441 22.956V25.918C42.1441 27.2352 42.2567 28.091 42.4852 28.4855C43.8259 28.253 44.498 28.1333 45.842 27.9536C45.5256 27.0225 45.3843 26.0375 45.4259 25.0516H45.4156ZM42.1475 17.5605C42.1643 17.8276 42.1307 18.0955 42.0486 18.3494C41.9905 18.4335 41.9144 18.5026 41.8263 18.5515C41.7381 18.6004 41.6403 18.6276 41.5403 18.6311L40.6806 18.8002V15.1374L41.5403 14.9719C41.8098 14.9261 41.9769 14.9719 42.0486 15.0775C42.1338 15.3172 42.1676 15.5732 42.1475 15.8277V17.5605ZM52.5352 10.492C50.7306 10.5554 49.83 10.6258 48.0287 10.8266L46.0024 27.9325C47.1793 27.7705 47.7661 27.7036 48.9396 27.5803C49.0351 26.6998 49.0829 26.2561 49.1716 25.3686C49.9118 25.2981 50.2803 25.2735 51.0205 25.2277C51.1195 26.0941 51.1706 26.5308 51.2764 27.3972C52.583 27.3267 53.2345 27.3056 54.5411 27.3056L52.5352 10.492ZM49.465 22.3679C49.7583 18.6487 49.9732 15.5636 50.0926 13.1123C50.2177 15.5424 50.4292 18.5947 50.7272 22.2693C50.2155 22.2975 49.963 22.3186 49.465 22.3679ZM32.2476 6.56154C32.4098 7.17348 32.3927 7.82133 32.1983 8.42321C32.0039 9.02508 31.6411 9.55395 31.1556 9.94297C30.6702 10.332 30.0839 10.5637 29.4709 10.6088C28.8579 10.6539 28.2458 10.5103 27.7118 10.1963C27.1778 9.88226 26.746 9.41184 26.471 8.84449C26.1959 8.27715 26.0899 7.63835 26.1665 7.00885C26.243 6.37935 26.4986 5.7874 26.9009 5.30783C27.3033 4.82826 27.8343 4.48261 28.4269 4.31456C28.8206 4.20288 29.2319 4.17242 29.6371 4.22493C30.0423 4.27743 30.4335 4.41187 30.7883 4.62055C31.1432 4.82923 31.4547 5.10806 31.7051 5.44111C31.9555 5.77416 32.1398 6.15489 32.2476 6.56154Z" fill="#222238"/>
</svg>
