<svg width="48" height="48" viewBox="0 0 48 48" fill="none" xmlns="http://www.w3.org/2000/svg">
<path d="M39.6448 0C36.8719 0 33.7643 1.50063 30.4062 4.4585C27.9959 6.58385 25.9135 9.06167 24.4871 10.9161C23.3254 10.535 22.0885 10.4315 20.8783 10.6142C19.6681 10.7968 18.5192 11.2603 17.5261 11.9665C16.5329 12.6728 15.724 13.6016 15.1658 14.6766C14.6076 15.7515 14.3161 16.9419 14.3153 18.1497C14.3153 22.3675 11.5917 24.2508 11.4691 24.3311C11.3256 24.425 11.2166 24.5621 11.1584 24.722C11.1002 24.8819 11.0959 25.056 11.146 25.2186C11.1962 25.3811 11.2982 25.5233 11.4369 25.6241C11.5755 25.7248 11.7435 25.7787 11.9157 25.7778H22.0475C23.2717 25.777 24.4783 25.4894 25.5679 24.9387C26.6575 24.3881 27.599 23.59 28.3149 22.6102C29.0308 21.6304 29.5006 20.497 29.6857 19.3031C29.8709 18.1092 29.766 16.8889 29.3797 15.7428C31.2567 14.3395 33.7683 12.2813 35.9227 9.9034C38.9236 6.59043 40.4447 3.52471 40.4447 0.789115C40.4447 0.579829 40.3604 0.379114 40.2104 0.231126C40.0604 0.0831386 39.8569 0 39.6448 0ZM22.0475 24.1995H13.8687C14.8379 22.9961 15.9151 21.0141 15.9151 18.1497C15.9151 16.9531 16.2747 15.7834 16.9486 14.7885C17.6224 13.7936 18.5801 13.0182 19.7007 12.5603C20.8212 12.1024 22.0543 11.9826 23.2438 12.216C24.4334 12.4495 25.5261 13.0256 26.3837 13.8717C27.2414 14.7178 27.8254 15.7958 28.062 16.9694C28.2986 18.1429 28.1772 19.3594 27.7131 20.4648C27.2489 21.5703 26.4629 22.5152 25.4544 23.1799C24.446 23.8447 23.2603 24.1995 22.0475 24.1995ZM25.9789 11.5855C26.4588 10.9713 27.0294 10.2703 27.6733 9.52199C28.9237 10.3166 29.9874 11.3659 30.7928 12.5995C30.0369 13.2348 29.3264 13.7977 28.7011 14.2711C28.0359 13.1652 27.0999 12.2418 25.9789 11.5855ZM32.0046 11.5461C31.1377 10.2751 30.0295 9.18173 28.7411 8.32648C31.5194 5.32127 35.2455 2.10431 38.7862 1.6361C38.3117 5.12925 35.0508 8.81179 32.0046 11.5461Z" fill="black"/>
<path d="M42.8235 3.55566H5.17647C3.80359 3.55566 2.48693 4.10362 1.51615 5.07899C0.545376 6.05435 0 7.37723 0 8.75661V35.2341C0 36.6135 0.545376 37.9364 1.51615 38.9118C2.48693 39.8871 3.80359 40.4351 5.17647 40.4351H22.5882V45.1632H16.4706C16.0962 45.1632 15.7371 45.3127 15.4723 45.5787C15.2076 45.8447 15.0588 46.2055 15.0588 46.5817C15.0588 46.9579 15.2076 47.3186 15.4723 47.5847C15.7371 47.8507 16.0962 48.0001 16.4706 48.0001H31.5294C31.9038 48.0001 32.2629 47.8507 32.5277 47.5847C32.7924 47.3186 32.9412 46.9579 32.9412 46.5817C32.9412 46.2055 32.7924 45.8447 32.5277 45.5787C32.2629 45.3127 31.9038 45.1632 31.5294 45.1632H25.4118V40.4351H42.8235C44.1964 40.4351 45.5131 39.8871 46.4838 38.9118C47.4546 37.9364 48 36.6135 48 35.2341V8.75661C48 7.37723 47.4546 6.05435 46.4838 5.07899C45.5131 4.10362 44.1964 3.55566 42.8235 3.55566ZM5.17647 6.39254H42.8235C43.4476 6.39254 44.0461 6.64161 44.4873 7.08496C44.9286 7.52831 45.1765 8.12962 45.1765 8.75661V28.142H2.82353V8.75661C2.82353 8.12962 3.07143 7.52831 3.51269 7.08496C3.95395 6.64161 4.55243 6.39254 5.17647 6.39254ZM42.8235 37.5982H5.17647C4.55243 37.5982 3.95395 37.3491 3.51269 36.9058C3.07143 36.4625 2.82353 35.8611 2.82353 35.2341V30.9788H45.1765V35.2341C45.1765 35.8611 44.9286 36.4625 44.4873 36.9058C44.0461 37.3491 43.4476 37.5982 42.8235 37.5982Z" fill="black"/>
</svg>
