<svg width="288" height="251" viewBox="0 0 288 251" fill="none" xmlns="http://www.w3.org/2000/svg">
<path d="M35.9395 31.375H71.8781V62.75H35.9395V31.375Z" fill="black"/>
<path d="M107.816 0V94.125H0V0H107.816ZM89.8466 15.6875H17.9693V78.4375H89.8466V15.6875ZM71.8773 188.25H35.9386V219.625H71.8773V188.25Z" fill="black"/>
<path d="M107.816 156.875V251H0V156.875H107.816ZM17.9693 172.562V235.312H89.8466V172.562H17.9693ZM215.632 31.375H251.57V62.75H215.632V31.375Z" fill="black"/>
<path d="M179.693 0V94.125H287.509V0H179.693ZM269.54 15.6875V78.4375H197.663V15.6875H269.54ZM143.755 15.6875V0H161.724V31.375H143.755V62.75H125.785V15.6875H143.755ZM143.755 94.125V62.75H161.724V94.125H143.755ZM107.816 125.5V109.812H125.785V94.125H143.755V125.5H161.724V109.812H251.57V125.5H179.693V141.188H125.785V125.5H107.816ZM107.816 125.5V141.188H35.9386V125.5H17.9693V141.188H0V109.812H53.908V125.5H107.816ZM287.509 141.188H269.54V109.812H287.509V141.188ZM269.54 141.188H251.57V172.562H287.509V156.875H269.54V141.188ZM197.663 141.188H233.601V156.875H215.632V172.562H197.663V141.188ZM233.601 188.25V172.562H215.632V188.25H197.663V203.938H161.724V219.625H215.632V188.25H233.601ZM233.601 188.25H287.509V203.938H251.57V219.625H233.601V188.25ZM161.724 172.562V188.25H179.693V156.875H125.785V172.562H161.724Z" fill="black"/>
<path d="M125.785 188.25H143.754V235.312H215.632V251H125.785V188.25ZM287.509 219.625V251H233.601V235.312H269.54V219.625H287.509Z" fill="black"/>
</svg>
