<svg width="51" height="44" viewBox="0 0 51 44" fill="none" xmlns="http://www.w3.org/2000/svg">
<path d="M6.30078 5.5H12.6008V11H6.30078V5.5Z" fill="black"/>
<path d="M18.9 0V16.5H0V0H18.9ZM15.75 2.75H3.15V13.75H15.75V2.75ZM12.6 33H6.3V38.5H12.6V33Z" fill="black"/>
<path d="M18.9 27.5V44H0V27.5H18.9ZM3.15 30.25V41.25H15.75V30.25H3.15ZM37.8 5.5H44.1V11H37.8V5.5Z" fill="black"/>
<path d="M31.5 0V16.5H50.4V0H31.5ZM47.25 2.75V13.75H34.65V2.75H47.25ZM25.2 2.75V0H28.35V5.5H25.2V11H22.05V2.75H25.2ZM25.2 16.5V11H28.35V16.5H25.2ZM18.9 22V19.25H22.05V16.5H25.2V22H28.35V19.25H44.1V22H31.5V24.75H22.05V22H18.9ZM18.9 22V24.75H6.3V22H3.15V24.75H0V19.25H9.45V22H18.9ZM50.4 24.75H47.25V19.25H50.4V24.75ZM47.25 24.75H44.1V30.25H50.4V27.5H47.25V24.75ZM34.65 24.75H40.95V27.5H37.8V30.25H34.65V24.75ZM40.95 33V30.25H37.8V33H34.65V35.75H28.35V38.5H37.8V33H40.95ZM40.95 33H50.4V35.75H44.1V38.5H40.95V33ZM28.35 30.25V33H31.5V27.5H22.05V30.25H28.35Z" fill="black"/>
<path d="M22.0508 33H25.2008V41.25H37.8008V44H22.0508V33ZM50.4008 38.5V44H40.9508V41.25H47.2508V38.5H50.4008Z" fill="black"/>
</svg>
