<svg width="30" height="30" viewBox="0 0 30 30" fill="none" xmlns="http://www.w3.org/2000/svg">
<path d="M24.7777 0C23.0447 0 21.1025 0.937897 19.0036 2.78656C17.4972 4.11491 16.1957 5.66355 15.3042 6.82256C14.5781 6.58438 13.8051 6.51971 13.0487 6.63385C12.2923 6.74799 11.5743 7.03768 10.9535 7.47909C10.3328 7.92051 9.82724 8.50102 9.47837 9.17286C9.12949 9.8447 8.94732 10.5887 8.94682 11.3435C8.94682 13.9797 7.24458 15.1568 7.16793 15.2069C7.07823 15.2656 7.01013 15.3513 6.97375 15.4512C6.93738 15.5512 6.93466 15.66 6.96602 15.7616C6.99738 15.8632 7.06113 15.9521 7.1478 16.015C7.23447 16.078 7.33942 16.1117 7.44705 16.1111H13.7794C14.5446 16.1106 15.2987 15.9309 15.9797 15.5867C16.6607 15.2425 17.2491 14.7437 17.6966 14.1314C18.144 13.519 18.4376 12.8106 18.5533 12.0644C18.669 11.3182 18.6035 10.5556 18.3621 9.83928C19.5352 8.96221 21.105 7.67579 22.4514 6.18962C24.327 4.11902 25.2777 2.20295 25.2777 0.493197C25.2777 0.362393 25.225 0.236946 25.1312 0.144454C25.0375 0.0519616 24.9103 0 24.7777 0ZM13.7794 15.1247H8.6677C9.27344 14.3726 9.94667 13.1338 9.94667 11.3435C9.94667 10.5957 10.1715 9.86463 10.5926 9.24282C11.0138 8.62101 11.6123 8.13637 12.3127 7.85018C13.013 7.56399 13.7837 7.48911 14.5272 7.63501C15.2706 7.78091 15.9536 8.14103 16.4896 8.66984C17.0256 9.19864 17.3906 9.87239 17.5385 10.6059C17.6864 11.3393 17.6105 12.0996 17.3204 12.7905C17.0303 13.4814 16.5391 14.072 15.9088 14.4875C15.2785 14.9029 14.5375 15.1247 13.7794 15.1247ZM16.2365 7.24095C16.5365 6.85708 16.8931 6.41896 17.2956 5.95124C18.0771 6.44784 18.7419 7.10368 19.2453 7.87471C18.7728 8.27174 18.3287 8.62355 17.938 8.91947C17.5222 8.22827 16.9372 7.65112 16.2365 7.24095ZM20.0026 7.2163C19.4608 6.42191 18.7682 5.73858 17.963 5.20405C19.6994 3.32579 22.0282 1.31519 24.2412 1.02256C23.9445 3.20578 21.9065 5.50737 20.0026 7.2163Z" fill="#9032FF"/>
<path d="M26.7647 2.22229H3.23529C2.37724 2.22229 1.55433 2.56476 0.947596 3.17437C0.34086 3.78397 0 4.61077 0 5.47288V22.0213C0 22.8835 0.34086 23.7103 0.947596 24.3199C1.55433 24.9295 2.37724 25.2719 3.23529 25.2719H14.1176V28.227H10.2941C10.0601 28.227 9.83567 28.3204 9.6702 28.4867C9.50473 28.6529 9.41177 28.8784 9.41177 29.1135C9.41177 29.3487 9.50473 29.5742 9.6702 29.7404C9.83567 29.9067 10.0601 30.0001 10.2941 30.0001H19.7059C19.9399 30.0001 20.1643 29.9067 20.3298 29.7404C20.4953 29.5742 20.5882 29.3487 20.5882 29.1135C20.5882 28.8784 20.4953 28.6529 20.3298 28.4867C20.1643 28.3204 19.9399 28.227 19.7059 28.227H15.8824V25.2719H26.7647C27.6228 25.2719 28.4457 24.9295 29.0524 24.3199C29.6591 23.7103 30 22.8835 30 22.0213V5.47288C30 4.61077 29.6591 3.78397 29.0524 3.17437C28.4457 2.56476 27.6228 2.22229 26.7647 2.22229ZM3.23529 3.99534H26.7647C27.1547 3.99534 27.5288 4.15101 27.8046 4.4281C28.0804 4.70519 28.2353 5.08101 28.2353 5.47288V17.5887H1.76471V5.47288C1.76471 5.08101 1.91964 4.70519 2.19543 4.4281C2.47122 4.15101 2.84527 3.99534 3.23529 3.99534ZM26.7647 23.4989H3.23529C2.84527 23.4989 2.47122 23.3432 2.19543 23.0661C1.91964 22.789 1.76471 22.4132 1.76471 22.0213V19.3618H28.2353V22.0213C28.2353 22.4132 28.0804 22.789 27.8046 23.0661C27.5288 23.3432 27.1547 23.4989 26.7647 23.4989Z" fill="#9032FF"/>
</svg>
