<svg width="30" height="30" viewBox="0 0 30 30" fill="none" xmlns="http://www.w3.org/2000/svg">
<path d="M20.5698 26.75C18.8298 27.5774 16.9266 28.0045 14.9999 28C7.83196 28 2.00001 22.168 2.00001 15C2.00001 11.925 3.057 9.021 4.99998 6.692V9H6.99997V3H1.00002V5H3.84199C1.36259 7.73972 -0.00714498 11.3049 2.80305e-05 15C2.80305e-05 23.271 6.72897 30 14.9999 30C17.2241 30.0046 19.4212 29.5112 21.4298 28.556L20.5698 26.75Z" fill="#9032FF"/>
<path d="M19.9999 8.00012C16.8399 8.00012 14.2489 10.4571 14.0219 13.5601C12.9226 12.557 11.4882 12.0006 9.99996 12.0001H6V16.0001C6 19.3091 8.69198 22.0001 11.9999 22.0001H13.9999V26.0001H15.9999V18.0001H17.9999C21.3079 18.0001 23.9998 15.3091 23.9998 12.0001V8.00012H19.9999ZM11.9999 20.0001C9.79397 20.0001 7.99998 18.2061 7.99998 16.0001V14.0001H9.99996C12.2059 14.0001 13.9999 15.7941 13.9999 18.0001V18.5861L11.7069 16.2931L10.293 17.7071L12.5859 20.0001H11.9999ZM21.9999 12.0001C21.9999 14.2061 20.2059 16.0001 17.9999 16.0001H17.4139L19.7069 13.7071L18.2929 12.2931L15.9999 14.5861V14.0001C15.9999 11.7941 17.7939 10.0001 19.9999 10.0001H21.9999V12.0001Z" fill="#9032FF"/>
<path d="M30.0001 15C30.0001 6.72903 23.2712 3.22967e-05 15.0003 3.22967e-05C12.776 -0.00459847 10.579 0.488802 8.57031 1.44403L9.43031 3.25003C11.1703 2.42263 13.0736 1.99551 15.0003 2.00003C22.1682 2.00003 28.0001 7.83203 28.0001 15C28.0001 18.075 26.9432 20.979 25.0002 23.308V21H23.0002V27H29.0001V25H26.1582C28.6376 22.2603 30.0073 18.6951 30.0001 15Z" fill="#9032FF"/>
</svg>
