<svg width="43" height="43" viewBox="0 0 43 43" fill="none" xmlns="http://www.w3.org/2000/svg">
<path d="M29.4834 38.3411C26.9894 39.527 24.2614 40.1392 21.4998 40.1327C11.2258 40.1327 2.86667 31.7736 2.86667 21.4996C2.86667 17.0922 4.38169 12.9298 7.16663 9.59161V12.8997H10.0333V4.2998H1.43336V7.16644H5.50684C1.95305 11.0933 -0.0102411 16.2034 4.0177e-05 21.4996C4.0177e-05 33.3546 9.64483 42.9994 21.4998 42.9994C24.6878 43.006 27.8369 42.2988 30.716 40.9297L29.4834 38.3411Z" fill="black"/>
<path d="M28.666 11.4668C24.1368 11.4668 20.423 14.9885 20.0977 19.436C18.5219 17.9982 16.466 17.2008 14.3329 17.2001H8.59961V22.9333C8.59961 27.6762 12.4581 31.5332 17.1995 31.5332H20.0661V37.2665H22.9328V25.8H25.7994C30.5408 25.8 34.3993 21.9429 34.3993 17.2001V11.4668H28.666ZM17.1995 28.6666C14.0376 28.6666 11.4662 26.0952 11.4662 22.9333V20.0667H14.3329C17.4948 20.0667 20.0661 22.6381 20.0661 25.8V26.6399L16.7795 23.3533L14.7528 25.38L18.0394 28.6666H17.1995ZM31.5327 17.2001C31.5327 20.362 28.9613 22.9333 25.7994 22.9333H24.9595L28.2461 19.6467L26.2194 17.62L22.9328 20.9066V20.0667C22.9328 16.9048 25.5041 14.3334 28.666 14.3334H31.5327V17.2001Z" fill="black"/>
<path d="M42.9992 21.4998C42.9992 9.64484 33.3544 4.62915e-05 21.4994 4.62915e-05C18.3114 -0.00659106 15.1623 0.700608 12.2832 2.06976L13.5159 4.65833C16.0099 3.4724 18.7378 2.86019 21.4994 2.86668C31.7734 2.86668 40.1326 11.2258 40.1326 21.4998C40.1326 25.9073 38.6175 30.0696 35.8326 33.4078V30.0997H32.966V38.6996H41.5659V35.833H37.4924C41.0462 31.9061 43.0095 26.796 42.9992 21.4998Z" fill="black"/>
</svg>
