<svg width="76" height="76" viewBox="0 0 76 76" fill="none" xmlns="http://www.w3.org/2000/svg">
<path d="M52.1103 67.7666C47.7023 69.8627 42.8807 70.9447 37.9997 70.9333C19.841 70.9333 5.06669 56.1589 5.06669 37.9999C5.06669 30.2099 7.7444 22.8531 12.6666 16.953V22.7999H17.7332V7.59991H2.53338V12.6666H9.73305C3.4519 19.6072 -0.0181006 28.6391 7.10107e-05 37.9999C7.10107e-05 58.9531 17.0467 75.9999 37.9997 75.9999C43.6344 76.0117 49.2003 74.7617 54.2889 72.3418L52.1103 67.7666Z" fill="#FFB600"/>
<path d="M50.6663 20.2669C42.661 20.2669 36.0972 26.4913 35.5222 34.3522C32.7372 31.811 29.1034 30.4015 25.3332 30.4002H15.2V40.5336C15.2 48.9164 22.0196 55.7336 30.3998 55.7336H35.4664V65.8669H40.5331V45.6002H45.5997C53.9799 45.6002 60.7995 38.783 60.7995 30.4002V20.2669H50.6663ZM30.3998 50.6669C24.8113 50.6669 20.2666 46.1221 20.2666 40.5336V35.4669H25.3332C30.9217 35.4669 35.4664 40.0117 35.4664 45.6002V47.0848L29.6576 41.2758L26.0755 44.858L31.8843 50.6669H30.3998ZM55.7329 30.4002C55.7329 35.9888 51.1882 40.5336 45.5997 40.5336H44.1152L49.924 34.7246L46.3419 31.1425L40.5331 36.9514V35.4669C40.5331 29.8784 45.0778 25.3336 50.6663 25.3336H55.7329V30.4002Z" fill="#FFB600"/>
<path d="M76 38.0001C76 17.0469 58.9534 8.18184e-05 38.0004 8.18184e-05C32.3657 -0.0116494 26.7998 1.2383 21.7112 3.65822L23.8898 8.23342C28.2978 6.13733 33.1194 5.05529 38.0004 5.06675C56.1592 5.06675 70.9334 19.8411 70.9334 38.0001C70.9334 45.7901 68.2557 53.1469 63.3335 59.047V53.2001H58.2669V68.4001H73.4667V63.3334H66.2671C72.5482 56.3928 76.0182 47.3609 76 38.0001Z" fill="#FFB600"/>
</svg>
