<svg width="26" height="23" viewBox="0 0 26 23" fill="none" xmlns="http://www.w3.org/2000/svg">
<path d="M3.25024 3.34534H6.50021V6.14354H3.25024V3.34534Z" fill="#9032FF"/>
<path d="M9.7499 0.547119V8.94173H0V0.547119H9.7499ZM8.12491 1.94622H1.62498V7.54263H8.12491V1.94622ZM6.49993 17.3363H3.24996V20.1346H6.49993V17.3363Z" fill="#9032FF"/>
<path d="M9.7499 14.5382V22.9328H0V14.5382H9.7499ZM1.62498 15.9373V21.5337H8.12491V15.9373H1.62498ZM19.4998 3.34534H22.7498V6.14354H19.4998V3.34534Z" fill="#9032FF"/>
<path d="M16.2498 0.547119V8.94173H25.9997V0.547119H16.2498ZM24.3747 1.94622V7.54263H17.8748V1.94622H24.3747ZM12.9999 1.94622V0.547119H14.6248V3.34532H12.9999V6.14353H11.3749V1.94622H12.9999ZM12.9999 8.94173V6.14353H14.6248V8.94173H12.9999ZM9.7499 11.7399V10.3408H11.3749V8.94173H12.9999V11.7399H14.6248V10.3408H22.7498V11.7399H16.2498V13.139H11.3749V11.7399H9.7499ZM9.7499 11.7399V13.139H3.24997V11.7399H1.62498V13.139H0V10.3408H4.87495V11.7399H9.7499ZM25.9997 13.139H24.3747V10.3408H25.9997V13.139ZM24.3747 13.139H22.7498V15.9372H25.9997V14.5381H24.3747V13.139ZM17.8748 13.139H21.1248V14.5381H19.4998V15.9372H17.8748V13.139ZM21.1248 17.3363V15.9372H19.4998V17.3363H17.8748V18.7354H14.6248V20.1346H19.4998V17.3363H21.1248ZM21.1248 17.3363H25.9997V18.7354H22.7498V20.1346H21.1248V17.3363ZM14.6248 15.9372V17.3363H16.2498V14.5381H11.3749V15.9372H14.6248Z" fill="#9032FF"/>
<path d="M11.3752 17.3364H13.0002V21.5337H19.5002V22.9328H11.3752V17.3364ZM26.0001 20.1346V22.9328H21.1251V21.5337H24.3751V20.1346H26.0001Z" fill="#9032FF"/>
</svg>
