<svg width="23" height="28" viewBox="0 0 23 28" fill="none" xmlns="http://www.w3.org/2000/svg">
<path d="M18.2474 4.78518C17.2448 3.61697 16.6922 2.11673 16.6926 0.563721H12.1601V19.1261C12.1251 20.1306 11.7096 21.0821 11.0009 21.7802C10.2923 22.4782 9.34587 22.8684 8.36097 22.8686C6.27806 22.8686 4.54719 21.1321 4.54719 18.9764C4.54719 16.4017 6.98214 14.4706 9.49043 15.264V10.5335C4.42985 9.84493 0 13.8568 0 18.9764C0 23.9614 4.04847 27.5092 8.3463 27.5092C12.9522 27.5092 16.6926 23.6919 16.6926 18.9764V9.56051C18.5305 10.9076 20.7372 11.6303 23 11.6263V7.00069C23 7.00069 20.2423 7.13542 18.2474 4.78518Z" fill="#9032FF"/>
</svg>
