<svg width="30" height="30" viewBox="0 0 30 30" fill="none" xmlns="http://www.w3.org/2000/svg">
<path d="M4.50005 3.73349C4.49786 3.53458 4.41674 3.34469 4.27454 3.20558C4.13234 3.06648 3.94071 2.98956 3.7418 2.99174C3.54288 2.99393 3.35299 3.07505 3.21388 3.21725C3.07478 3.35945 2.99786 3.55108 3.00005 3.74999V26.25C3.00005 26.4489 3.07906 26.6397 3.21972 26.7803C3.36037 26.921 3.55113 27 3.75005 27H26.25C26.449 27 26.6397 26.921 26.7804 26.7803C26.921 26.6397 27 26.4489 27 26.25C27 26.0511 26.921 25.8603 26.7804 25.7197C26.6397 25.579 26.449 25.5 26.25 25.5H4.50005V3.73349ZM24 24V8.24999C23.9998 8.10887 23.9598 7.97066 23.8846 7.85126C23.8094 7.73185 23.702 7.6361 23.5748 7.575C23.4475 7.5139 23.3057 7.48993 23.1654 7.50585C23.0252 7.52177 22.8923 7.57693 22.782 7.665L15.6795 13.3455L10.872 10.599C10.7701 10.5408 10.6559 10.5074 10.5387 10.5014C10.4214 10.4954 10.3044 10.517 10.197 10.5645L6.00005 12.429V24H24Z" fill="#9032FF"/>
</svg>
